<mxfile host="app.diagrams.net" modified="2024-07-16T05:36:47.377Z" agent="Mozilla/5.0 (X11; Ubuntu; Linux x86_64; rv:128.0) Gecko/20100101 Firefox/128.0" version="24.6.4" etag="-St6iw--irQDaB-cJUku" type="github">
  <diagram name="第 1 页" id="G6cFt_PfJXEAQxLnsST_">
    <mxGraphModel>
      <root>
        <mxCell id="0" />
        <mxCell id="1" parent="0" />
      </root>
    </mxGraphModel>
  </diagram>
</mxfile>
